<svg width="996" height="249" viewBox="0 0 996 249" fill="none" xmlns="http://www.w3.org/2000/svg">
<path d="M71.9492 138.634C74.1219 142.812 76.1274 146.991 77.9658 151.169C79.8042 155.18 81.643 159.776 83.4814 164.957C85.3198 159.776 87.1577 155.18 88.9961 151.169C90.8345 146.991 92.841 142.812 95.0137 138.634L118.578 90.25H164.957L82.4785 248.188L0 90.25H48.3838L71.9492 138.634ZM82.4785 246.026L163.307 91.25H119.203L95.9121 139.072L95.9004 139.096C93.7375 143.255 91.7415 147.414 89.9121 151.571L89.9092 151.578L89.9053 151.585C88.0818 155.563 86.2546 160.132 84.4238 165.291L83.4814 167.947L82.5391 165.291C80.7083 160.132 78.8802 155.564 77.0566 151.585L77.0508 151.571C75.2214 147.414 73.2254 143.255 71.0625 139.096L71.0557 139.084L71.0498 139.072L47.7598 91.25H1.65039L82.4785 246.026ZM225.386 177.244V178.244H201.996C204.002 188.272 208.756 193.954 216.611 200.305C224.383 206.295 234.193 209.384 246.043 209.571L247.195 209.581C256.424 209.581 264.712 207.777 272.059 204.169L272.767 203.814C280.454 199.971 286.722 195.208 291.568 189.525L301.095 228.634L300.387 229.162C293.04 234.581 284.753 238.667 275.524 241.419C266.165 244.26 256.388 245.681 246.193 245.681V244.681C256.294 244.681 265.972 243.273 275.233 240.462L275.238 240.461C284.435 237.718 292.674 233.638 299.966 228.228L291.048 191.617C286.299 196.778 280.351 201.138 273.221 204.704C265.542 208.629 256.859 210.581 247.195 210.581C234.657 210.581 224.233 207.443 216 201.097L215.991 201.09L215.982 201.082C208.024 194.648 203.083 188.779 201.016 178.439L200.776 177.244H225.386ZM494.928 165.458C494.928 150.918 498.27 137.631 504.955 125.598C511.807 113.565 520.916 104.038 532.28 97.0186C543.645 89.832 556.348 86.2393 570.387 86.2393L571.884 86.2529C579.336 86.39 586.274 87.5555 592.698 89.749C599.55 92.0888 605.734 95.4312 611.249 99.7764V0H654.87V240.667H617.267V225.876C611.584 231.726 604.731 236.321 596.709 239.664L595.955 239.973C588.138 243.11 579.615 244.678 570.387 244.678V243.678C579.793 243.678 588.435 242.028 596.324 238.741C604.23 235.447 610.967 230.925 616.549 225.179L618.267 223.411V239.667H653.87V1H612.249V101.837L610.631 100.562C605.207 96.2883 599.124 92.9998 592.375 90.6953C585.637 88.3947 578.311 87.2393 570.387 87.2393C556.528 87.2393 544.013 90.7834 532.815 97.8643L532.807 97.8691C521.59 104.797 512.597 114.199 505.824 126.093C499.23 137.967 495.928 151.082 495.928 165.458C495.928 179.832 499.229 192.946 505.821 204.818L506.463 205.911C513.159 217.133 521.941 226.176 532.815 233.053C544.013 240.134 556.528 243.678 570.387 243.678V244.678L569.074 244.667C555.555 244.449 543.29 240.859 532.28 233.897C521.271 226.936 512.379 217.778 505.604 206.425L504.955 205.318C498.479 193.661 495.14 180.827 494.938 166.817L494.928 165.458ZM737.822 176.241V177.241H714.433C716.438 187.269 721.193 192.951 729.048 199.302C736.819 205.292 746.63 208.381 758.479 208.568L759.633 208.578C769.159 208.578 777.682 206.655 785.203 202.812C792.891 198.968 799.159 194.205 804.006 188.522L813.531 227.631L812.823 228.159C805.477 233.578 797.19 237.664 787.961 240.416C778.602 243.257 768.825 244.678 758.63 244.678V243.678C768.73 243.678 778.41 242.27 787.671 239.459L787.675 239.458C796.872 236.715 805.112 232.635 812.403 227.225L803.485 190.613C798.736 195.775 792.788 200.135 785.657 203.701L785.658 203.702C777.979 207.627 769.297 209.578 759.633 209.578C747.094 209.578 736.671 206.44 728.438 200.094L728.428 200.087L728.419 200.08C720.461 193.646 715.52 187.777 713.452 177.438L713.213 176.241H737.822ZM903.699 176.241V177.241H880.31C882.315 187.269 887.07 192.951 894.925 199.302C902.696 205.292 912.507 208.381 924.356 208.568L925.509 208.578C935.035 208.578 943.559 206.656 951.08 202.812C958.768 198.968 965.035 194.205 969.882 188.522L979.408 227.631L978.7 228.159C971.354 233.578 963.066 237.664 953.838 240.416C944.479 243.257 934.702 244.678 924.507 244.678V243.678C934.607 243.678 944.286 242.27 953.547 239.459L953.552 239.458C962.749 236.715 970.988 232.635 978.279 227.225L969.362 190.614C964.613 195.775 958.665 200.135 951.534 203.701L951.535 203.702C943.856 207.627 935.173 209.578 925.509 209.578C912.971 209.578 902.546 206.44 894.313 200.094L894.296 200.08C886.338 193.646 881.397 187.777 879.329 177.438L879.09 176.241H903.699ZM478.507 150.667C478.507 136.937 475.612 125.342 469.876 115.836L469.871 115.827L469.865 115.818C464.269 106.108 456.88 98.808 447.697 93.8887L447.688 93.8838L447.679 93.8789C438.639 88.7836 428.864 86.2363 418.337 86.2363C409.452 86.2363 401.157 88.045 393.44 91.6572C385.734 95.2644 379.26 100.509 374.008 107.402L372.212 109.759V91.25H335.104V239.667H376.725V155.932C376.725 144.901 379.697 136.628 385.848 131.356C392.034 126.03 399.031 123.345 406.805 123.345C416.426 123.345 423.926 126.711 429.157 133.512C434.308 140.208 436.886 147.86 436.886 156.434V239.667H478.507V150.667ZM615.261 165.458C615.261 157.937 613.422 151.085 609.745 144.901C606.345 138.911 601.768 134.097 596.016 130.459L595.456 130.11C589.627 126.548 583.171 124.712 576.088 124.601L575.4 124.595C568.047 124.595 561.361 126.434 555.345 130.11L554.784 130.459C549.026 134.097 544.367 138.911 540.805 144.901C537.295 151.085 535.54 157.937 535.54 165.458L535.545 166.161C535.651 173.407 537.405 180.025 540.805 186.016C544.482 192.199 549.328 197.13 555.345 200.807C561.173 204.369 567.629 206.205 574.713 206.316L575.4 206.321C582.524 206.321 589.021 204.596 594.89 201.146L595.456 200.807C601.284 197.245 605.936 192.506 609.412 186.592L609.745 186.016C613.307 180.025 615.144 173.407 615.255 166.161L615.261 165.458ZM316.14 162.951C316.14 148.237 312.752 135.128 305.998 123.597L305.993 123.587C299.397 112.043 290.332 102.979 278.788 96.3828L278.779 96.3779C267.248 89.624 254.138 86.2363 239.424 86.2363C225.048 86.2364 211.933 89.6217 200.059 96.3838C188.345 103.149 179.027 112.384 172.096 124.102L172.093 124.106C165.177 135.633 161.706 148.905 161.706 163.954C161.706 179.673 165.261 193.617 172.348 205.814L173.021 206.936C180.06 218.443 189.729 227.554 202.048 234.273C214.749 241.201 229.455 244.681 246.193 244.681V245.681L244.616 245.67C228.908 245.464 214.964 242.174 202.781 235.799L201.569 235.151C189.103 228.351 179.302 219.12 172.168 207.458L171.486 206.321C164.3 193.954 160.706 179.831 160.706 163.954C160.706 149.221 164 136.134 170.588 124.694L171.235 123.593C178.255 111.727 187.697 102.367 199.563 95.5146C211.597 88.6624 224.884 85.2364 239.424 85.2363L240.814 85.2461C255.128 85.4536 267.951 88.8766 279.284 95.5146C290.983 102.2 300.176 111.392 306.861 123.091C313.714 134.79 317.14 148.077 317.14 162.951V178.244H225.386V177.244H316.14V162.951ZM994.453 161.948C994.453 147.234 991.065 134.125 984.312 122.594L984.306 122.584V122.583C977.709 111.04 968.645 101.976 957.102 95.3799L957.093 95.375C945.562 88.621 932.452 85.2334 917.737 85.2334C903.362 85.2335 890.247 88.6188 878.372 95.3809C866.658 102.146 857.341 111.381 850.409 123.099L850.406 123.104C843.491 134.631 840.02 147.902 840.02 162.951C840.02 178.67 843.575 192.614 850.661 204.812L851.334 205.933C858.373 217.441 868.043 226.551 880.361 233.271C893.062 240.198 907.768 243.678 924.507 243.678V244.678L922.93 244.668C906.699 244.455 892.35 240.949 879.883 234.148C867.416 227.348 857.615 218.117 850.481 206.455L849.8 205.318C842.613 192.951 839.02 178.828 839.02 162.951C839.02 148.218 842.314 135.131 848.901 123.691L849.549 122.59C856.568 110.724 866.011 101.364 877.877 94.5117C889.91 87.6595 903.197 84.2335 917.737 84.2334C932.612 84.2334 945.899 87.6595 957.598 94.5117C969.297 101.197 978.49 110.389 985.175 122.088C992.027 133.787 995.453 147.074 995.453 161.948V177.241H903.699V176.241H994.453V161.948ZM828.576 161.948C828.576 147.234 825.188 134.125 818.435 122.594L818.43 122.584C811.833 111.04 802.769 101.976 791.226 95.3799L791.216 95.375C779.685 88.6211 766.576 85.2335 751.861 85.2334C737.488 85.2334 724.374 88.6168 712.5 95.377C700.784 102.143 691.465 111.379 684.532 123.099L684.529 123.104C677.614 134.631 674.143 147.903 674.143 162.951C674.143 178.67 677.698 192.614 684.784 204.812L685.457 205.933C692.497 217.441 702.167 226.551 714.485 233.271C727.186 240.198 741.892 243.678 758.63 243.678V244.678L757.053 244.668C740.822 244.455 726.473 240.948 714.006 234.148C701.539 227.348 691.738 218.117 684.604 206.455L683.923 205.318C676.736 192.951 673.143 178.828 673.143 162.951C673.143 148.218 676.437 135.131 683.024 123.691L683.672 122.59C690.472 111.094 699.547 101.951 710.896 95.1611L712.001 94.5117C724.034 87.6596 737.321 84.2334 751.861 84.2334L753.251 84.2432C767.564 84.4506 780.388 87.8736 791.722 94.5117C803.421 101.197 812.613 110.389 819.298 122.088C826.15 133.787 829.576 147.074 829.576 161.948V177.241H737.822V176.241H828.576V161.948ZM238.923 118.832C248.803 118.832 257.139 121.476 263.862 126.82H263.861C270.748 132.161 275.409 139.967 277.959 149.146L278.312 150.414H199.484L199.857 149.135C202.582 139.768 207.37 132.391 214.243 127.063C221.281 121.571 229.523 118.832 238.923 118.832ZM238.923 119.832C229.731 119.832 221.709 122.506 214.856 127.854L214.235 128.346C207.88 133.486 203.408 140.509 200.817 149.414H276.996C274.567 140.671 270.208 133.262 263.86 128.097L263.24 127.604C256.926 122.584 249.121 119.997 239.827 119.84L238.923 119.832ZM751.359 117.829C761.235 117.829 769.568 120.472 776.289 125.811L776.929 126.318C783.47 131.641 787.925 139.247 790.396 148.144L790.748 149.411H711.922L712.294 148.132C714.934 139.058 719.509 131.851 726.042 126.566L726.681 126.061C733.719 120.569 741.959 117.829 751.359 117.829ZM917.236 117.829C927.112 117.829 935.445 120.472 942.166 125.811L942.806 126.318C949.347 131.641 953.801 139.247 956.272 148.144L956.625 149.411H877.798L878.171 148.132C880.811 139.058 885.386 131.851 891.919 126.566L892.557 126.062C899.595 120.569 907.836 117.829 917.236 117.829ZM751.359 118.829C742.167 118.829 734.145 121.503 727.293 126.852L726.672 127.343C720.317 132.483 715.844 139.506 713.254 148.411H789.433C786.926 139.386 782.362 131.782 775.677 126.601C769.159 121.42 761.053 118.829 751.359 118.829ZM917.236 118.829C908.044 118.829 900.022 121.504 893.17 126.852L892.549 127.343C886.194 132.483 881.721 139.506 879.131 148.411H955.31C952.881 139.668 948.522 132.259 942.174 127.094L941.554 126.601C935.239 121.582 927.435 118.994 918.141 118.837L917.236 118.829ZM616.261 165.458C616.261 173.143 614.38 180.167 610.614 186.508L610.615 186.509C607.023 192.839 602.14 197.893 595.978 201.659C589.797 205.436 582.93 207.321 575.4 207.321C567.871 207.321 561.004 205.436 554.823 201.659C548.665 197.896 543.703 192.847 539.944 186.526L539.935 186.509C536.335 180.166 534.54 173.141 534.54 165.458C534.54 157.775 536.335 150.751 539.935 144.408L539.944 144.391C543.703 138.07 548.665 133.02 554.823 129.257C561.004 125.48 567.871 123.595 575.4 123.595C582.93 123.595 589.797 125.48 595.978 129.257C602.14 133.023 607.023 138.078 610.615 144.408C614.381 150.749 616.261 157.773 616.261 165.458ZM479.507 240.667H435.886V156.434C435.886 148.338 433.533 141.105 428.827 134.735L428.365 134.121C423.508 127.807 416.611 124.551 407.676 124.354L406.805 124.345C399.284 124.345 392.516 126.935 386.499 132.116L385.959 132.595C380.469 137.629 377.725 145.408 377.725 155.932V240.667H334.104V90.25H373.212V106.796C378.56 99.7765 385.162 94.4278 393.017 90.751C400.872 87.0741 409.312 85.2363 418.337 85.2363L419.338 85.2441C429.654 85.401 439.265 87.9888 448.17 93.0078C457.529 98.0217 465.05 105.459 470.732 115.319C476.582 125.013 479.507 136.795 479.507 150.667V240.667Z" fill="black"/>
</svg>
