<svg width="1024" height="250" viewBox="0 0 1024 250" xmlns="http://www.w3.org/2000/svg">
<path d="M83.9826 249.071L1.50417 91.1333H49.8882L73.4535 139.517C75.6262 143.696 77.6317 147.874 79.4701 152.052C81.3086 156.063 83.147 160.659 84.9854 165.84C86.8238 160.659 88.6623 156.063 90.5007 152.052C92.3391 147.874 94.3447 143.696 96.5174 139.517L120.083 91.1333H166.461L83.9826 249.071Z" />
<path d="M247.697 246.564C230.817 246.564 215.942 243.054 203.073 236.035C190.204 229.015 180.177 219.405 172.99 207.205C165.804 194.837 162.21 180.715 162.21 164.838C162.21 149.629 165.72 136.175 172.739 124.476C179.759 112.609 189.202 103.25 201.068 96.3979C213.101 89.5456 226.388 86.1194 240.928 86.1194C255.803 86.1194 269.09 89.5456 280.789 96.3979C292.488 103.083 301.68 112.275 308.365 123.974C315.217 135.673 318.644 148.96 318.644 163.835V179.127H226.889H203.5C205.506 189.155 210.26 194.837 218.115 201.188C226.137 207.372 236.332 210.464 248.7 210.464C258.226 210.464 266.75 208.542 274.271 204.698C281.959 200.854 288.226 196.091 293.073 190.408L302.599 229.517C295.078 235.199 286.555 239.461 277.028 242.302C267.669 245.143 257.892 246.564 247.697 246.564ZM202.321 150.297H278.5C275.993 141.272 271.429 133.668 264.744 128.487C258.226 123.306 250.12 120.715 240.427 120.715C231.235 120.715 223.213 123.389 216.36 128.737C209.675 133.919 204.995 141.105 202.321 150.297Z" />
<path d="M335.608 241.55V91.1333H374.716V107.679C380.064 100.66 386.666 95.3116 394.521 91.6347C402.376 87.9579 410.816 86.1194 419.841 86.1194C430.537 86.1194 440.482 88.71 449.674 93.891C459.033 98.9049 466.554 106.342 472.236 116.203C478.086 125.896 481.011 137.679 481.011 151.551V241.55H437.39V157.317C437.39 148.96 434.883 141.523 429.869 135.005C424.855 128.487 417.668 125.228 408.309 125.228C400.788 125.228 394.02 127.818 388.003 132.999C382.153 138.013 379.229 145.952 379.229 156.815V241.55H335.608Z" />
<path d="M571.89 245.561C557.852 245.561 545.15 241.968 533.785 234.781C522.42 227.595 513.311 218.068 506.459 206.202C499.774 194.169 496.431 180.882 496.431 166.342C496.431 151.801 499.774 138.515 506.459 126.481C513.311 114.448 522.42 104.922 533.785 97.9021C545.15 90.7155 557.852 87.1222 571.89 87.1222C579.913 87.1222 587.35 88.2921 594.202 90.6319C601.055 92.9718 607.238 96.3144 612.754 100.66V0.883324H656.374V241.55H618.77V226.759C613.088 232.609 606.236 237.205 598.213 240.547C590.191 243.89 581.417 245.561 571.89 245.561ZM576.904 207.205C584.258 207.205 590.943 205.366 596.96 201.69C602.977 198.013 607.74 193.082 611.249 186.899C614.926 180.715 616.765 173.863 616.765 166.342C616.765 158.821 614.926 151.969 611.249 145.785C607.74 139.601 602.977 134.671 596.96 130.994C590.943 127.317 584.258 125.478 576.904 125.478C569.551 125.478 562.865 127.317 556.849 130.994C550.832 134.671 545.985 139.601 542.308 145.785C538.799 151.969 537.044 158.821 537.044 166.342C537.044 173.863 538.799 180.715 542.308 186.899C545.985 193.082 550.832 198.013 556.849 201.69C562.865 205.366 569.551 207.205 576.904 207.205Z" />
<path d="M760.134 245.561C743.254 245.561 728.379 242.051 715.51 235.032C702.641 228.013 692.613 218.403 685.427 206.202C678.24 193.835 674.647 179.712 674.647 163.835C674.647 148.626 678.157 135.172 685.176 123.473C692.196 111.607 701.638 102.247 713.505 95.3952C725.538 88.5429 738.825 85.1167 753.365 85.1167C768.24 85.1167 781.526 88.5429 793.225 95.3952C804.925 102.08 814.117 111.272 820.802 122.972C827.654 134.671 831.08 147.957 831.08 162.832V178.124H739.326H715.937C717.942 188.152 722.697 193.835 730.552 200.185C738.574 206.369 748.769 209.461 761.137 209.461C770.663 209.461 779.187 207.539 786.707 203.695C794.395 199.851 800.663 195.088 805.51 189.406L815.036 228.514C807.515 234.196 798.991 238.458 789.465 241.299C780.106 244.141 770.329 245.561 760.134 245.561ZM714.758 149.294H790.937C788.43 140.269 783.866 132.665 777.181 127.484C770.663 122.303 762.557 119.713 752.864 119.713C743.672 119.713 735.649 122.387 728.797 127.735C722.112 132.916 717.432 140.102 714.758 149.294Z" />
<path d="M926.011 245.561C909.13 245.561 894.256 242.051 881.387 235.032C868.518 228.013 858.49 218.403 851.304 206.202C844.117 193.835 840.524 179.712 840.524 163.835C840.524 148.626 844.033 135.172 851.053 123.473C858.072 111.607 867.515 102.248 879.381 95.3952C891.415 88.5429 904.702 85.1167 919.242 85.1167C934.116 85.1167 947.403 88.5429 959.102 95.3952C970.801 102.08 979.993 111.273 986.679 122.972C993.531 134.671 996.957 147.957 996.957 162.832V178.124H905.203H881.813C883.819 188.152 888.574 193.835 896.429 200.185C904.451 206.369 914.646 209.461 927.013 209.461C936.54 209.461 945.063 207.539 952.584 203.695C960.272 199.851 966.539 195.088 971.386 189.406L980.913 228.514C973.392 234.196 964.868 238.458 955.342 241.299C945.983 244.141 936.205 245.561 926.011 245.561ZM880.635 149.295H956.813C954.307 140.269 949.743 132.665 943.058 127.484C936.54 122.303 928.434 119.713 918.74 119.713C909.548 119.713 901.526 122.387 894.674 127.735C887.989 132.916 883.309 140.102 880.635 149.295Z" />
</svg>
